<svg width="24" height="24" viewBox="0 0 24 24" fill="none" xmlns="http://www.w3.org/2000/svg">
    <path fill-rule="evenodd" clip-rule="evenodd" d="M7 3C4.79086 3 3 4.79086 3 7C3 9.20914 4.79086 11 7 11H17C19.2091 11 21 9.20914 21 7C21 4.79086 19.2091 3 17 3H7ZM17 5C18.1046 5 19 5.89543 19 7C19 8.10457 18.1046 9 17 9H7C5.89543 9 5 8.10457 5 7C5 5.89543 5.89543 5 7 5H17ZM7 13C4.79086 13 3 14.7909 3 17C3 19.2091 4.79086 21 7 21H17C19.2091 21 21 19.2091 21 17C21 14.7909 19.2091 13 17 13H7ZM17 15C18.1046 15 19 15.8954 19 17C19 18.1046 18.1046 19 17 19H7C5.89543 19 5 18.1046 5 17C5 15.8954 5.89543 15 7 15H17Z" fill="currentColor"/>
</svg>
