<svg width="16" height="16" viewBox="0 0 16 16" fill="currentColor" xmlns="http://www.w3.org/2000/svg">
    <path fill-rule="evenodd" clip-rule="evenodd" d="M8 16C12.4183 16 16 12.4183 16 8C16 3.58172 12.4183 0 8 0C3.58172 0 0 3.58172 0 8C0 12.4183 3.58172 16 8 16ZM9 4C9 3.44772 8.55228 3 8 3C7.44772 3 7 3.44772 7 4V7H4C3.44772 7 3 7.44772 3 8C3 8.55228 3.44772 9 4 9H7V12C7 12.5523 7.44772 13 8 13C8.55228 13 9 12.5523 9 12V9H12C12.5523 9 13 8.55228 13 8C13 7.44772 12.5523 7 12 7H9V4Z" fill="currentColor"/>
</svg>
