<svg width="24" height="24" viewBox="0 0 24 24" fill="none" xmlns="http://www.w3.org/2000/svg">
    <path fill-rule="evenodd" clip-rule="evenodd" d="M16.1458 6.05117C15.5289 6.00078 14.7366 6 13.6 6L7.41421 6L8.70711 7.29289C9.09763 7.68342 9.09763 8.31658 8.70711 8.70711C8.31658 9.09763 7.68342 9.09763 7.29289 8.70711L4.29289 5.70711C4.10536 5.51957 4 5.26522 4 5C4 4.73478 4.10536 4.48043 4.29289 4.29289L7.29289 1.29289C7.68342 0.902368 8.31658 0.902368 8.70711 1.29289C9.09763 1.68342 9.09763 2.31658 8.70711 2.70711L7.41421 4L13.6 4L13.6428 4C14.7266 3.99999 15.6007 3.99998 16.3086 4.05782C17.0375 4.11737 17.6777 4.24318 18.27 4.54497C19.2108 5.02433 19.9757 5.78924 20.455 6.73005C20.7568 7.32234 20.8826 7.96253 20.9422 8.69138C21 9.39923 21 10.2733 21 11.3571L21 11.3572L21 11.4L21 13C21 13.5523 20.5523 14 20 14C19.4477 14 19 13.5523 19 13L19 11.4C19 10.2634 18.9992 9.47108 18.9488 8.85424C18.8994 8.24907 18.8072 7.90138 18.673 7.63803C18.3854 7.07354 17.9265 6.6146 17.362 6.32698C17.0986 6.19279 16.7509 6.10062 16.1458 6.05117ZM16.7071 15.2929C16.3166 14.9024 15.6834 14.9024 15.2929 15.2929C14.9024 15.6834 14.9024 16.3166 15.2929 16.7071L16.5858 18L10.4 18C9.26339 18 8.47108 17.9992 7.85424 17.9488C7.24907 17.8994 6.90138 17.8072 6.63803 17.673C6.07354 17.3854 5.6146 16.9265 5.32698 16.362C5.19279 16.0986 5.10062 15.7509 5.05118 15.1458C5.00078 14.5289 5 13.7366 5 12.6L5 11C5 10.4477 4.55228 10 4 10C3.44771 10 3 10.4477 3 11L3 12.6L3 12.6428L3 12.6429C2.99999 13.7267 2.99998 14.6008 3.05782 15.3086C3.11737 16.0375 3.24318 16.6777 3.54497 17.2699C4.02433 18.2108 4.78924 18.9757 5.73005 19.455C6.32234 19.7568 6.96253 19.8826 7.69137 19.9422C8.39925 20 9.27341 20 10.3572 20L10.4 20L16.5858 20L15.2929 21.2929C14.9024 21.6834 14.9024 22.3166 15.2929 22.7071C15.6834 23.0976 16.3166 23.0976 16.7071 22.7071L19.7071 19.7071C19.8946 19.5196 20 19.2652 20 19C20 18.7348 19.8946 18.4804 19.7071 18.2929L16.7071 15.2929Z" fill="currentColor"/>
</svg>
