<svg width="24" height="24" viewBox="0 0 24 24" fill="none" xmlns="http://www.w3.org/2000/svg">
    <path fill-rule="evenodd" clip-rule="evenodd" d="M5.68798 6.4931C6.08736 6.18072 6.58459 6 7.11535 6H16.8848C17.4156 6 17.9128 6.18072 18.3122 6.4931C18.7116 6.80553 19.0114 7.24835 19.1446 7.77198L20.7208 13.9686C20.9063 14.6976 21.0001 15.4473 21.0001 16.2C21.0001 16.6999 20.8002 17.1494 20.4766 17.4756C20.1531 17.8017 19.7109 18 19.2223 18C18.7338 18 18.2915 17.8017 17.968 17.4756C17.7139 17.2194 17.2946 16.5645 16.8918 15.8595C16.7033 15.5294 16.536 15.2202 16.4157 14.9932C16.3557 14.8799 16.3076 14.7876 16.2748 14.7242L16.2376 14.6517L16.2283 14.6335L16.2261 14.6293L16.2257 14.6284L16.2257 14.6284L16.2257 14.6283L16.2256 14.6283L15.9481 14.08H15.3335H8.66679H8.0541L7.77591 14.6258L7.7759 14.6258L7.77586 14.6259L7.77586 14.6259L7.77544 14.6267L7.77334 14.6308L7.76423 14.6485L7.72738 14.7196C7.69493 14.782 7.64733 14.8726 7.5877 14.9841C7.46821 15.2076 7.30169 15.5125 7.11302 15.8391C6.71197 16.5335 6.28642 17.1914 6.01426 17.4657C5.66486 17.8179 5.23993 18 4.77784 18C4.28927 18 3.84703 17.8017 3.52356 17.4756C3.20638 17.1559 3.00808 16.7178 3.00029 16.2299C3.03766 15.1767 3.12934 14.5582 3.27934 13.9686L4.8556 7.77198C4.9888 7.24835 5.28851 6.80553 5.68798 6.4931ZM15.1552 16.8515C14.9928 16.5671 14.846 16.2989 14.7286 16.08H9.2692C9.15254 16.2955 9.00674 16.5592 8.84492 16.8394C8.46365 17.4995 7.9179 18.3866 7.4341 18.8743C6.7357 19.5783 5.80965 20 4.77784 20C3.73228 20 2.78562 19.5715 2.10373 18.8842C1.4272 18.2022 1.00649 17.261 1.00012 16.2238L1 16.2035L1.0007 16.1831C1.04107 15.0151 1.14571 14.2435 1.34106 13.4755L2.91733 7.27893C3.16217 6.31639 3.71586 5.49648 4.45581 4.91773C5.19584 4.33892 6.12403 4 7.11535 4H16.8848C17.8761 4 18.8043 4.33892 19.5443 4.91773C20.2843 5.49648 20.838 6.31639 21.0828 7.27893L22.6591 13.4755C22.8855 14.3658 23.0001 15.2811 23.0001 16.2C23.0001 17.2465 22.5782 18.197 21.8964 18.8842C21.2145 19.5715 20.2679 20 19.2223 20C18.1768 20 17.2301 19.5715 16.5482 18.8842C16.0763 18.4085 15.5333 17.5134 15.1552 16.8515ZM10.0001 10C10.0001 10.8284 9.32853 11.5 8.50011 11.5C7.67168 11.5 7.00011 10.8284 7.00011 10C7.00011 9.17157 7.67168 8.5 8.50011 8.5C9.32853 8.5 10.0001 9.17157 10.0001 10ZM17.0001 10C17.0001 10.8284 16.3285 11.5 15.5001 11.5C14.6717 11.5 14.0001 10.8284 14.0001 10C14.0001 9.17157 14.6717 8.5 15.5001 8.5C16.3285 8.5 17.0001 9.17157 17.0001 10Z" fill="currentColor"/>
</svg>
