<svg width="24" height="24" viewBox="0 0 24 24" fill="none" xmlns="http://www.w3.org/2000/svg">
    <path fill-rule="evenodd" clip-rule="evenodd" d="M8.8 3H8.7587H8.75868C7.95372 2.99999 7.28937 2.99998 6.74818 3.04419C6.18608 3.09012 5.66937 3.18868 5.18404 3.43598C4.43139 3.81947 3.81947 4.43139 3.43598 5.18404C3.18868 5.66937 3.09012 6.18608 3.04419 6.74818C2.99998 7.28937 2.99999 7.95372 3 8.75868V8.7587V8.8V15.2V15.2413V15.2413C2.99999 16.0463 2.99998 16.7106 3.04419 17.2518C3.09012 17.8139 3.18868 18.3306 3.43598 18.816C3.81947 19.5686 4.43139 20.1805 5.18404 20.564C5.66937 20.8113 6.18608 20.9099 6.74818 20.9558C7.28937 21 7.95372 21 8.75868 21H8.8H15.2H15.2413C16.0463 21 16.7106 21 17.2518 20.9558C17.8139 20.9099 18.3306 20.8113 18.816 20.564C19.5686 20.1805 20.1805 19.5686 20.564 18.816C20.8113 18.3306 20.9099 17.8139 20.9558 17.2518C21 16.7106 21 16.0463 21 15.2413V15.2V8.8V8.75868C21 7.95372 21 7.28937 20.9558 6.74818C20.9099 6.18608 20.8113 5.66937 20.564 5.18404C20.1805 4.43139 19.5686 3.81947 18.816 3.43598C18.3306 3.18868 17.8139 3.09012 17.2518 3.04419C16.7106 2.99998 16.0463 2.99999 15.2413 3H15.2413H15.2H8.8ZM6.09202 5.21799C6.24842 5.1383 6.47262 5.07337 6.91104 5.03755C7.36113 5.00078 7.94342 5 8.8 5H15.2C16.0566 5 16.6389 5.00078 17.089 5.03755C17.5274 5.07337 17.7516 5.1383 17.908 5.21799C18.2843 5.40974 18.5903 5.7157 18.782 6.09202C18.8617 6.24842 18.9266 6.47262 18.9624 6.91104C18.9992 7.36113 19 7.94342 19 8.8V15.2C19 16.0566 18.9992 16.6389 18.9624 17.089C18.9266 17.5274 18.8617 17.7516 18.782 17.908C18.5903 18.2843 18.2843 18.5903 17.908 18.782C17.7516 18.8617 17.5274 18.9266 17.089 18.9624C16.6389 18.9992 16.0566 19 15.2 19H8.8C7.94342 19 7.36113 18.9992 6.91104 18.9624C6.47262 18.9266 6.24842 18.8617 6.09202 18.782C5.7157 18.5903 5.40974 18.2843 5.21799 17.908C5.1383 17.7516 5.07337 17.5274 5.03755 17.089C5.00078 16.6389 5 16.0566 5 15.2V8.8C5 7.94342 5.00078 7.36113 5.03755 6.91104C5.07337 6.47262 5.1383 6.24842 5.21799 6.09202C5.40974 5.7157 5.7157 5.40974 6.09202 5.21799ZM9 8C8.44772 8 8 8.44772 8 9C8 9.55229 8.44772 10 9 10H9.00266H9.00541H9.00824H9.01116H9.01415H9.01723H9.02039H9.02364H9.02696H9.03037H9.03385H9.03742H9.04107H9.0448H9.0486H9.05249H9.05646H9.06051H9.06463H9.06883H9.07312H9.07748H9.08191H9.08643H9.09102H9.09569H9.10043H9.10525H9.11015H9.11512H9.12017H9.1253H9.13049H9.13577H9.14111H9.14653H9.15203H9.1576H9.16324H9.16895H9.17474H9.1806H9.18653H9.19253H9.1986H9.20475H9.21096H9.21725H9.22361H9.23003H9.23653H9.24309H9.24973H9.25643H9.2632H9.27004H9.27695H9.28393H9.29097H9.29808H9.30526H9.31251H9.31982H9.32719H9.33464H9.34214H9.34972H9.35735H9.36506H9.37282H9.38065H9.38855H9.39651H9.40453H9.41261H9.42076H9.42897H9.43724H9.44557H9.45397H9.46242H9.47094H9.47952H9.48816H9.49685H9.50561H9.51443H9.5233H9.53224H9.54123H9.55029H9.5594H9.56856H9.57779H9.58707H9.59641H9.60581H9.61526H9.62477H9.63434H9.64396H9.65363H9.66337H9.67315H9.68299H9.69288H9.70283H9.71283H9.72289H9.733H9.74316H9.75337H9.76364H9.77395H9.78432H9.79474H9.80521H9.81573H9.82631H9.83693H9.8476H9.85832H9.86909H9.87991H9.89078H9.9017H9.91266H9.92368H9.93474H9.94585H9.957H9.9682H9.97945H9.99075H10.0021H10.0135H10.0249H10.0364H10.0479H10.0595H10.0711H10.0827H10.0944H10.1062H10.118H10.1298H10.1417H10.1536H10.1655H10.1775H10.1896H10.2016H10.2138H10.2259H10.2381H10.2503H10.2626H10.2749H10.2873H10.2997H10.3121H10.3246H10.3371H10.3497H10.3623H10.3749H10.3875H10.4002H10.413H10.4257H10.4385H10.4514H10.4643H10.4772H10.4901H10.5031H10.5161H10.5292H10.5422H10.5554H10.5685H10.5817H10.5949H10.6081H10.6214H10.6347H10.6481H10.6614H10.6748H10.6883H10.7017H10.7152H10.7287H10.7423H10.7559H10.7695H10.7831H10.7968H10.8104H10.8242H10.8379H10.8517H10.8655H10.8793H10.8932H10.907H10.9209H10.9349H10.9488H10.9628H10.9768H10.9908H11.0049H11.0189H11.033H11.0472H11.0613H11.0755H11.0897H11.1039H11.1181H11.1323H11.1466H11.1609H11.1752H11.1896H11.2039H11.2183H11.2327H11.2471H11.2615H11.276H11.2904H11.3049H11.3194H11.3339H11.3485H11.363H11.3776H11.3922H11.4068H11.4214H11.436H11.4507H11.4654H11.48H11.4947H11.5094H11.5242H11.5389H11.5536H11.5684H11.5832H11.5979H11.6127H11.6275H11.6424H11.6572H11.672H11.6869H11.7017H11.7166H11.7315H11.7464H11.7613H11.7762H11.7911H11.806H11.821H11.8359H11.8508H11.8658H11.8808H11.8957H11.9107H11.9257H11.9407H11.9557H11.9707H11.9857H12.0007H12.0157H12.0307H12.0457H12.0607H12.0758H12.0908H12.1058H12.1208H12.1359H12.1509H12.1659H12.181H12.196H12.2111H12.2261H12.2411H12.2562H12.2712H12.2863H12.3013H12.3163H12.3314H12.3464H12.3614H12.3765H12.3915H12.4065H12.4215H12.4365H12.4516H12.4666H12.4816H12.4966H12.5116H12.5265H12.5415H12.5565H12.5715H12.5864H12.6014H12.6163H12.6313H12.6462H12.6611H12.6761H12.691H12.7059H12.7208H12.7356H12.7505H12.7654H12.7802H12.7951H12.8099H12.8247H12.8395H12.8543H12.8691H12.8839H12.8987H12.9134H12.9281H12.9429H12.9576H12.9723H12.987H13.0016H13.0163H13.0309H13.0455H13.0601H13.0747H13.0893H13.1039H13.1184H13.1329H13.1474H13.1619H13.1764H13.1908H13.2053H13.2197H13.2341H13.2485H13.2628H13.2772H13.2915H13.3058H13.3201H13.3343H13.3486H13.3628H13.377H13.3911H13.4053H13.4194H13.4335H13.4476H13.4617H13.4757H13.4897H13.5037H13.5176H13.5316H13.5455H13.5594H13.5732H13.5871H13.6009H13.6146H13.6284H13.6421H13.6558H13.6695H13.6831H13.6967H13.7103H13.7239H13.7374H13.7509H13.7644H13.7778H13.7912H13.8046H13.8179H13.8313H13.8445H13.8578H13.871H13.8842H13.8974H13.9105H13.9236H13.9366H13.9497H13.9626H13.9756H13.9885H14.0014H14.0143H14.0271H14.0398H14.0526H14.0653H14.078H14.0906H14.1032H14.1158H14.1283H14.1408H14.1532H14.1656H14.178H14.1903H14.2026H14.2149H14.2271H14.2392H14.2514H14.2635H14.2755H14.2875H14.2995H14.3114H14.3233H14.3351H14.3469H14.3587H14.3704H14.382H14.3937H14.4052H14.4168H14.4283H14.4397H14.4511H14.4625H14.4738H14.485H14.4962H14.5074H14.5185H14.5296H14.5406H14.5516H14.5625H14.5734H14.5842H14.595H14.6058H14.6165H14.6271H14.6377H14.6482H14.6587H14.6691H14.6795H14.6898H14.7001H14.7103H14.7205H14.7306H14.7407H14.7507H14.7607H14.7706H14.7804H14.7902H14.8H14.8097H14.8193H14.8289H14.8384H14.8479H14.8573H14.8667H14.876H14.8852H14.8944H14.9035H14.9126H14.9216H14.9305H14.9394H14.9483H14.957H14.9657H14.9744H14.983H14.9915H15C15.5523 10 16 9.55229 16 9C16 8.44772 15.5523 8 15 8H14.9915H14.983H14.9744H14.9657H14.957H14.9483H14.9394H14.9305H14.9216H14.9126H14.9035H14.8944H14.8852H14.876H14.8667H14.8573H14.8479H14.8384H14.8289H14.8193H14.8097H14.8H14.7902H14.7804H14.7706H14.7607H14.7507H14.7407H14.7306H14.7205H14.7103H14.7001H14.6898H14.6795H14.6691H14.6587H14.6482H14.6377H14.6271H14.6165H14.6058H14.595H14.5842H14.5734H14.5625H14.5516H14.5406H14.5296H14.5185H14.5074H14.4962H14.485H14.4738H14.4625H14.4511H14.4397H14.4283H14.4168H14.4052H14.3937H14.382H14.3704H14.3587H14.3469H14.3351H14.3233H14.3114H14.2995H14.2875H14.2755H14.2635H14.2514H14.2392H14.2271H14.2149H14.2026H14.1903H14.178H14.1656H14.1532H14.1408H14.1283H14.1158H14.1032H14.0906H14.078H14.0653H14.0526H14.0398H14.0271H14.0143H14.0014H13.9885H13.9756H13.9626H13.9497H13.9366H13.9236H13.9105H13.8974H13.8842H13.871H13.8578H13.8445H13.8313H13.8179H13.8046H13.7912H13.7778H13.7644H13.7509H13.7374H13.7239H13.7103H13.6967H13.6831H13.6695H13.6558H13.6421H13.6284H13.6146H13.6009H13.5871H13.5732H13.5594H13.5455H13.5316H13.5176H13.5037H13.4897H13.4757H13.4617H13.4476H13.4335H13.4194H13.4053H13.3911H13.377H13.3628H13.3486H13.3343H13.3201H13.3058H13.2915H13.2772H13.2628H13.2485H13.2341H13.2197H13.2053H13.1908H13.1764H13.1619H13.1474H13.1329H13.1184H13.1039H13.0893H13.0747H13.0601H13.0455H13.0309H13.0163H13.0016H12.987H12.9723H12.9576H12.9429H12.9281H12.9134H12.8987H12.8839H12.8691H12.8543H12.8395H12.8247H12.8099H12.7951H12.7802H12.7654H12.7505H12.7356H12.7208H12.7059H12.691H12.6761H12.6611H12.6462H12.6313H12.6163H12.6014H12.5864H12.5715H12.5565H12.5415H12.5265H12.5116H12.4966H12.4816H12.4666H12.4516H12.4365H12.4215H12.4065H12.3915H12.3765H12.3614H12.3464H12.3314H12.3163H12.3013H12.2863H12.2712H12.2562H12.2411H12.2261H12.2111H12.196H12.181H12.1659H12.1509H12.1359H12.1208H12.1058H12.0908H12.0758H12.0607H12.0457H12.0307H12.0157H12.0007H11.9857H11.9707H11.9557H11.9407H11.9257H11.9107H11.8957H11.8808H11.8658H11.8508H11.8359H11.821H11.806H11.7911H11.7762H11.7613H11.7464H11.7315H11.7166H11.7017H11.6869H11.672H11.6572H11.6424H11.6275H11.6127H11.5979H11.5832H11.5684H11.5536H11.5389H11.5242H11.5094H11.4947H11.48H11.4654H11.4507H11.436H11.4214H11.4068H11.3922H11.3776H11.363H11.3485H11.3339H11.3194H11.3049H11.2904H11.276H11.2615H11.2471H11.2327H11.2183H11.2039H11.1896H11.1752H11.1609H11.1466H11.1323H11.1181H11.1039H11.0897H11.0755H11.0613H11.0472H11.033H11.0189H11.0049H10.9908H10.9768H10.9628H10.9488H10.9349H10.9209H10.907H10.8932H10.8793H10.8655H10.8517H10.8379H10.8242H10.8104H10.7968H10.7831H10.7695H10.7559H10.7423H10.7287H10.7152H10.7017H10.6883H10.6748H10.6614H10.6481H10.6347H10.6214H10.6081H10.5949H10.5817H10.5685H10.5554H10.5422H10.5292H10.5161H10.5031H10.4901H10.4772H10.4643H10.4514H10.4385H10.4257H10.413H10.4002H10.3875H10.3749H10.3623H10.3497H10.3371H10.3246H10.3121H10.2997H10.2873H10.2749H10.2626H10.2503H10.2381H10.2259H10.2138H10.2016H10.1896H10.1775H10.1655H10.1536H10.1417H10.1298H10.118H10.1062H10.0944H10.0827H10.0711H10.0595H10.0479H10.0364H10.0249H10.0135H10.0021H9.99075H9.97945H9.9682H9.957H9.94585H9.93474H9.92368H9.91266H9.9017H9.89078H9.87991H9.86909H9.85832H9.8476H9.83693H9.82631H9.81573H9.80521H9.79474H9.78432H9.77395H9.76364H9.75337H9.74316H9.733H9.72289H9.71283H9.70283H9.69288H9.68299H9.67315H9.66337H9.65363H9.64396H9.63434H9.62477H9.61526H9.60581H9.59641H9.58707H9.57779H9.56856H9.5594H9.55029H9.54123H9.53224H9.5233H9.51443H9.50561H9.49685H9.48816H9.47952H9.47094H9.46242H9.45397H9.44557H9.43724H9.42897H9.42076H9.41261H9.40453H9.39651H9.38855H9.38065H9.37282H9.36506H9.35735H9.34972H9.34214H9.33464H9.32719H9.31982H9.31251H9.30526H9.29808H9.29097H9.28393H9.27695H9.27004H9.2632H9.25643H9.24973H9.24309H9.23653H9.23003H9.22361H9.21725H9.21096H9.20475H9.1986H9.19253H9.18653H9.1806H9.17474H9.16895H9.16324H9.1576H9.15203H9.14653H9.14111H9.13577H9.13049H9.1253H9.12017H9.11512H9.11015H9.10525H9.10043H9.09569H9.09102H9.08643H9.08191H9.07748H9.07312H9.06883H9.06463H9.06051H9.05646H9.05249H9.0486H9.0448H9.04107H9.03742H9.03385H9.03037H9.02696H9.02364H9.02039H9.01723H9.01415H9.01116H9.00824H9.00541H9.00266H9Z" fill="currentColor"/>
</svg>
