<svg width="142" height="51" viewBox="0 0 142 51" fill="none" xmlns="http://www.w3.org/2000/svg">
    <path fill-rule="evenodd" clip-rule="evenodd" d="M40.7512 5.36116C40.7507 5.36053 40.7596 5.35968 40.7792 5.36046C40.7614 5.36217 40.7516 5.36178 40.7512 5.36116ZM41.1104 5.41732C41.1571 5.42873 41.2089 5.44237 41.266 5.45865C41.9846 5.6635 43.0825 6.1658 44.6166 7.10667C47.6564 8.9709 51.8637 12.2133 57.282 16.9226L58.2525 17.7661L59.5178 17.5373C64.444 16.6467 68.2507 16.2266 71.0001 16.2266C73.7473 16.2266 77.507 16.6462 82.3386 17.5358L83.5866 17.7656L84.5555 16.9461C90.0118 12.3315 94.2448 9.1255 97.2961 7.25103C98.7929 6.3315 99.8851 5.80817 100.622 5.56863C100.726 5.95375 100.831 6.50024 100.913 7.24773C101.133 9.25977 101.144 12.3263 100.811 16.7281C100.589 19.6641 100.17 22.7939 99.55 26.1197L99.3691 27.09L99.8606 27.946C102.076 31.8042 102.99 36.1237 102.516 41H107.899C108.329 35.6712 107.383 30.6984 104.994 26.1545C105.552 23.0078 105.941 20 106.158 17.1329C106.502 12.5952 106.516 9.15332 106.244 6.66457C106.108 5.42343 105.891 4.31773 105.555 3.39219C105.236 2.51279 104.699 1.48779 103.718 0.804532C102.149 -0.28809 100.29 0.0548248 99.0882 0.429608C97.7279 0.853674 96.1769 1.64522 94.4892 2.682C91.2877 4.64875 87.133 7.78883 82.0596 12.038C77.6449 11.2684 73.9433 10.8643 71.0001 10.8643C68.058 10.8643 64.3189 11.2683 59.8306 12.0374C54.7899 7.70278 50.641 4.51086 47.42 2.53552C45.7218 1.49401 44.1414 0.702381 42.736 0.30176C41.4407 -0.0674811 39.5705 -0.304704 38.0245 0.869591C37.3344 1.39377 36.7302 2.07593 36.2903 3.04004C35.8834 3.93184 35.6686 4.95353 35.5489 6.09822C35.3134 8.34988 35.3877 11.7597 35.7031 17.0889C35.8692 19.8943 36.2556 22.953 36.8542 26.2593C34.6493 31.1656 33.7077 36.0929 34.0787 41H39.4604C39.0558 36.6864 39.9031 32.2929 42.0655 27.7668L42.444 26.9744L42.2805 26.1116C41.6246 22.652 41.22 19.5413 41.0561 16.7721C40.7377 11.3931 40.699 8.40683 40.8821 6.65605C40.9504 6.0037 41.0406 5.62712 41.1104 5.41732ZM92.4425 33.8082C93.2904 36.0511 92.0127 39.1287 89.1244 41H80.0202C79.8321 40.7588 79.6799 40.4911 79.569 40.1978C78.6244 37.6994 80.9619 34.4646 84.7902 32.9728C88.6184 31.4809 91.4977 31.3098 92.4425 33.8082ZM62.4512 40.1985C62.3415 40.4887 62.1923 40.7562 62.0083 41H51.9807C49.4531 39.0921 48.4169 35.8662 49.1948 33.8089C50.1395 31.3105 53.4018 31.4816 57.2301 32.9734C61.0583 34.4653 63.3958 37.7 62.4512 40.1985ZM101.237 5.42822C101.237 5.42884 101.227 5.42956 101.208 5.4285C101.229 5.42706 101.238 5.42759 101.237 5.42822ZM100.401 4.96647C100.401 4.96658 100.403 4.96922 100.406 4.97406C100.404 4.97026 100.403 4.96794 100.402 4.96698C100.402 4.96661 100.401 4.96644 100.401 4.96647ZM2.5 46C1.11929 46 0 47.1193 0 48.5C0 49.8807 1.11929 51 2.5 51H139.5C140.881 51 142 49.8807 142 48.5C142 47.1193 140.881 46 139.5 46H2.5Z" fill="currentColor"/>
</svg>
