<svg width="21" height="14" viewBox="0 0 21 14" fill="none" xmlns="http://www.w3.org/2000/svg">
    <path d="M0.849855 2.56586C0.609053 2.56586 0.40721 2.4817 0.244315 2.31337C0.0814307 2.14506 0 1.93649 0 1.68766C0 1.43885 0.0814307 1.23041 0.244315 1.06236C0.40721 0.894286 0.609053 0.81025 0.849855 0.81025H4.46735C4.70814 0.81025 4.90997 0.894415 5.07287 1.06275C5.23576 1.23106 5.31721 1.43963 5.31721 1.68845C5.31721 1.93729 5.23576 2.14573 5.07287 2.31378C4.90997 2.48183 4.70814 2.56586 4.46735 2.56586H0.849855ZM0.849855 8.28294C0.609053 8.28294 0.40721 8.19879 0.244315 8.03048C0.0814307 7.86218 0 7.65361 0 7.40477C0 7.15594 0.0814307 6.94749 0.244315 6.77942C0.40721 6.61134 0.609053 6.52731 0.849855 6.52731H4.46735C4.70814 6.52731 4.90997 6.61146 5.07287 6.77977C5.23576 6.94807 5.31721 7.15664 5.31721 7.40548C5.31721 7.65431 5.23576 7.86276 5.07287 8.03083C4.90997 8.19891 4.70814 8.28294 4.46735 8.28294H0.849855ZM19.5648 13.4058L15.8209 9.53893C15.3967 9.86302 14.9318 10.1099 14.4263 10.2795C13.9206 10.4489 13.4049 10.5338 12.879 10.5338C11.464 10.5338 10.2603 10.0213 9.26813 8.99643C8.27587 7.97161 7.77974 6.72839 7.77974 5.26688C7.77974 3.80535 8.27587 2.56215 9.26813 1.53729C10.2603 0.512424 11.464 0 12.879 0C14.294 0 15.4977 0.512424 16.4899 1.53729C17.4821 2.56215 17.9784 3.80535 17.9784 5.26688C17.9784 5.81007 17.8962 6.34273 17.732 6.86497C17.5679 7.3871 17.3289 7.86733 17.0152 8.30542L20.759 12.1724C20.9159 12.3345 20.9961 12.5381 20.9999 12.7835C21.0034 13.0288 20.9232 13.2362 20.759 13.4058C20.5948 13.5754 20.3958 13.6601 20.1619 13.6601C19.928 13.6601 19.729 13.5754 19.5648 13.4058ZM12.879 8.77815C13.8233 8.77815 14.6261 8.43674 15.287 7.75403C15.948 7.07132 16.2786 6.24219 16.2786 5.26688C16.2786 4.29156 15.948 3.46248 15.287 2.77972C14.6261 2.09698 13.8233 1.7556 12.879 1.7556C11.9347 1.7556 11.132 2.09698 10.471 2.77972C9.81002 3.46248 9.47947 4.29156 9.47947 5.26688C9.47947 6.24219 9.81002 7.07132 10.471 7.75403C11.132 8.43674 11.9347 8.77815 12.879 8.77815ZM0.849855 14C0.609053 14 0.40721 13.9158 0.244315 13.7475C0.0814307 13.5792 0 13.3707 0 13.1218C0 12.873 0.0814307 12.6645 0.244315 12.4965C0.40721 12.3284 0.609053 12.2444 0.849855 12.2444H10.1333C10.374 12.2444 10.5759 12.3285 10.7388 12.4969C10.9017 12.6652 10.9831 12.8738 10.9831 13.1227C10.9831 13.3714 10.9017 13.5798 10.7388 13.7479C10.5759 13.916 10.374 14 10.1333 14H0.849855Z" fill="currentColor"/>
</svg>
