<svg width="24" height="24" viewBox="0 0 24 24" fill="none" xmlns="http://www.w3.org/2000/svg">
    <path fill-rule="evenodd" clip-rule="evenodd" d="M11.9999 2.5C9.51462 2.5 7.49991 4.51472 7.49991 7C7.49991 9.48528 9.51462 11.5 11.9999 11.5C14.4852 11.5 16.4999 9.48528 16.4999 7C16.4999 4.51472 14.4852 2.5 11.9999 2.5ZM14.4999 7C14.4999 8.38071 13.3806 9.5 11.9999 9.5C10.6192 9.5 9.49991 8.38071 9.49991 7C9.49991 5.61929 10.6192 4.5 11.9999 4.5C13.3806 4.5 14.4999 5.61929 14.4999 7ZM6 19C5.45318 19 5.00887 18.5611 5.00013 18.0164C5.00083 18.0078 5.00238 17.9919 5.00557 17.9695C5.01369 17.9127 5.03222 17.8156 5.07368 17.6912C5.15545 17.4459 5.32927 17.0849 5.70711 16.7071C6.45343 15.9608 8.15415 15 12 15C15.8459 15 17.5466 15.9608 18.2929 16.7071C18.6707 17.0849 18.8446 17.4459 18.9263 17.6912C18.9678 17.8156 18.9863 17.9127 18.9944 17.9695C18.9976 17.9919 18.9992 18.0078 18.9999 18.0164C18.9911 18.5611 18.5468 19 18 19H6ZM21 17.998V18C21 19.6569 19.6569 21 18 21H6C4.34315 21 3 19.6569 3 18L3 17.998L3.00001 17.9959L3.00003 17.9914L3.00016 17.9812L3.00076 17.9563C3.00137 17.9376 3.00241 17.915 3.00417 17.8886C3.00769 17.8358 3.0141 17.7677 3.02568 17.6867C3.04881 17.5248 3.09278 17.3094 3.17632 17.0588C3.34455 16.5541 3.67073 15.9151 4.29289 15.2929C5.54657 14.0392 7.84586 13 12 13C16.1541 13 18.4534 14.0392 19.7071 15.2929C20.3293 15.9151 20.6554 16.5541 20.8237 17.0588C20.9072 17.3094 20.9512 17.5248 20.9743 17.6867C20.9859 17.7677 20.9923 17.8358 20.9958 17.8886C20.9976 17.915 20.9986 17.9376 20.9992 17.9563L20.9998 17.9812L21 17.9914L21 17.9959L21 17.998Z" fill="currentColor"/>
</svg>
