<svg width="24" height="24" viewBox="0 0 24 24" fill="none" xmlns="http://www.w3.org/2000/svg">
    <path fill-rule="evenodd" clip-rule="evenodd" d="M5 9C5 8.47826 5.44895 7.73671 6.79036 7.066C8.07196 6.4252 9.91244 6 12 6C14.0876 6 15.928 6.4252 17.2096 7.066C18.5511 7.73671 19 8.47826 19 9C19 9.52174 18.5511 10.2633 17.2096 10.934C15.928 11.5748 14.0876 12 12 12C9.91244 12 8.07196 11.5748 6.79036 10.934C5.44895 10.2633 5 9.52174 5 9ZM12 4C9.66928 4 7.50977 4.47023 5.89593 5.27715C4.34191 6.05416 3 7.3126 3 9C3 10.6874 4.34191 11.9458 5.89593 12.7229C7.50977 13.5298 9.66928 14 12 14C14.3307 14 16.4902 13.5298 18.1041 12.7229C19.6581 11.9458 21 10.6874 21 9C21 7.3126 19.6581 6.05416 18.1041 5.27715C16.4902 4.47023 14.3307 4 12 4ZM5 15C5 14.4477 4.55228 14 4 14C3.44772 14 3 14.4477 3 15C3 15.8141 3.38133 16.5109 3.90973 17.0574C4.43348 17.5992 5.14307 18.0414 5.94233 18.391C7.54381 19.0917 9.6863 19.5 12 19.5C14.3137 19.5 16.4562 19.0917 18.0577 18.391C18.8569 18.0414 19.5665 17.5992 20.0903 17.0574C20.6187 16.5109 21 15.8141 21 15C21 14.4477 20.5523 14 20 14C19.4477 14 19 14.4477 19 15C19 15.1524 18.9336 15.3764 18.6524 15.6673C18.3665 15.963 17.9045 16.275 17.256 16.5587C15.9621 17.1248 14.1046 17.5 12 17.5C9.89543 17.5 8.03791 17.1248 6.74396 16.5587C6.09551 16.275 5.63353 15.963 5.34763 15.6673C5.06638 15.3764 5 15.1524 5 15Z" fill="currentColor"/>
</svg>
