<svg width="24" height="24" viewBox="0 0 24 24" fill="none" xmlns="http://www.w3.org/2000/svg">
    <path fill-rule="evenodd" clip-rule="evenodd" d="M12.9999 3.88672L18.5262 7.07732C19.145 7.43459 19.5262 8.09484 19.5262 8.80937V15.1906C19.5262 15.9051 19.145 16.5654 18.5262 16.9226L12.9999 20.1132C12.3811 20.4705 11.6187 20.4705 10.9999 20.1132L5.47363 16.9226C4.85483 16.5654 4.47363 15.9051 4.47363 15.1906V8.80937C4.47363 8.09484 4.85483 7.43459 5.47363 7.07732L10.9999 3.88672C11.6187 3.52946 12.3811 3.52946 12.9999 3.88672ZM9.99991 2.15467C11.2375 1.44014 12.7623 1.44014 13.9999 2.15467L19.5262 5.34527C20.7638 6.0598 21.5262 7.38031 21.5262 8.80937V15.1906C21.5262 16.6196 20.7638 17.9401 19.5262 18.6547L13.9999 21.8453C12.7623 22.5598 11.2375 22.5598 9.99991 21.8453L4.47363 18.6547C3.23603 17.9401 2.47363 16.6196 2.47363 15.1906V8.80937C2.47363 7.38031 3.23603 6.0598 4.47363 5.34527L9.99991 2.15467ZM9.99991 12C9.99991 10.8954 10.8953 9.99997 11.9999 9.99997C13.1045 9.99997 13.9999 10.8954 13.9999 12C13.9999 13.1045 13.1045 14 11.9999 14C10.8953 14 9.99991 13.1045 9.99991 12ZM11.9999 7.99997C9.79077 7.99997 7.99991 9.79083 7.99991 12C7.99991 14.2091 9.79077 16 11.9999 16C14.2091 16 15.9999 14.2091 15.9999 12C15.9999 9.79083 14.2091 7.99997 11.9999 7.99997Z" fill="currentColor"/>
</svg>
