<svg width="24" height="24" viewBox="0 0 24 24" fill="none" xmlns="http://www.w3.org/2000/svg">
    <path fill-rule="evenodd" clip-rule="evenodd" d="M8.47021 5H15.5299C16.554 5 16.6646 5.01902 16.7375 5.04038C16.8595 5.07615 16.9735 5.13484 17.0736 5.21332C17.1333 5.26021 17.2131 5.33915 17.8083 6.17253L19.1114 7.99681C19.5315 8.58495 19.7828 8.939 19.9535 9.21949C20.111 9.47842 20.1233 9.55509 20.1233 9.55516C20.1617 9.73384 20.1504 9.91962 20.0906 10.0923C20.0906 10.0924 20.069 10.167 19.8812 10.4049C19.6778 10.6626 19.3854 10.9835 18.897 11.5163L14.0641 16.7885C13.427 17.4836 13.0322 17.9118 12.7118 18.207C12.5619 18.3452 12.463 18.421 12.3993 18.4635C12.3691 18.4836 12.3494 18.4944 12.3389 18.4997C12.3336 18.5024 12.3301 18.504 12.3283 18.5048L12.3255 18.5059C12.1146 18.5785 11.8855 18.5785 11.6745 18.5059L11.6718 18.5048C11.6699 18.504 11.6665 18.5024 11.6612 18.4997C11.6507 18.4944 11.631 18.4836 11.6008 18.4635C11.5371 18.421 11.4382 18.3452 11.2883 18.207C10.9679 17.9118 10.5731 17.4836 9.93602 16.7885L5.10313 11.5163C4.61474 10.9835 4.32227 10.6626 4.11885 10.4049C3.93203 10.1682 3.90976 10.0931 3.90952 10.0923L3.90952 10.0923C3.84973 9.91962 3.83841 9.73384 3.87679 9.55516L3.8768 9.55515C3.87694 9.55432 3.88992 9.47711 4.04663 9.21949C4.21726 8.939 4.46861 8.58495 4.88871 7.99681L6.19176 6.17253C6.78703 5.33915 6.86679 5.26021 6.92654 5.21332C7.02655 5.13484 7.1406 5.07615 7.26259 5.04038C7.33547 5.01902 7.44606 5 8.47021 5ZM4.56429 5.01006C5.09011 4.27391 5.35302 3.90584 5.69182 3.63996C5.99183 3.40452 6.33399 3.22844 6.69996 3.12115C7.11323 3 7.56556 3 8.47021 3H15.5299C16.4345 3 16.8869 3 17.3001 3.12115C17.6661 3.22844 18.0083 3.40452 18.3083 3.63996C18.6471 3.90583 18.91 4.2739 19.4358 5.01004L20.7389 6.83433C21.545 7.96299 21.9481 8.52733 22.0787 9.13513C22.1938 9.67117 22.1599 10.2285 21.9805 10.7466C21.7771 11.3341 21.3085 11.8453 20.3713 12.8678L15.5384 18.14C14.3107 19.4793 13.6968 20.149 12.9765 20.3969C12.3438 20.6148 11.6563 20.6148 11.0235 20.3969C10.3033 20.149 9.68944 19.4793 8.46171 18.14L3.62882 12.8678C2.69158 11.8453 2.22296 11.3341 2.01958 10.7466C1.84021 10.2285 1.80625 9.67117 1.9214 9.13513C2.05196 8.52733 2.45505 7.96299 3.26124 6.83433L4.56429 5.01006ZM8.00005 8C7.44776 8 7.00005 8.44772 7.00005 9C7.00005 9.55228 7.44776 10 8.00005 10H8.0036H8.00726H8.01104H8.01492H8.01892H8.02302H8.02724H8.03156H8.03599H8.04053H8.04518H8.04994H8.0548H8.05977H8.06485H8.07004H8.07533H8.08072H8.08622H8.09182H8.09753H8.10335H8.10926H8.11528H8.1214H8.12763H8.13396H8.14038H8.14691H8.15354H8.16027H8.16711H8.17404H8.18107H8.1882H8.19542H8.20275H8.21017H8.21769H8.22531H8.23303H8.24084H8.24875H8.25675H8.26485H8.27304H8.28133H8.28971H8.29819H8.30675H8.31542H8.32417H8.33302H8.34195H8.35098H8.3601H8.36932H8.37862H8.38801H8.39749H8.40706H8.41672H8.42647H8.4363H8.44623H8.45624H8.46633H8.47652H8.48679H8.49714H8.50758H8.51811H8.52872H8.53942H8.5502H8.56106H8.572H8.58303H8.59414H8.60534H8.61661H8.62797H8.6394H8.65092H8.66252H8.67419H8.68595H8.69778H8.7097H8.72169H8.73376H8.74591H8.75813H8.77043H8.78281H8.79526H8.80779H8.8204H8.83308H8.84583H8.85866H8.87156H8.88453H8.89758H8.9107H8.92389H8.93716H8.95049H8.9639H8.97737H8.99092H9.00454H9.01823H9.03198H9.04581H9.0597H9.07366H9.08769H9.10179H9.11595H9.13018H9.14447H9.15883H9.17326H9.18775H9.20231H9.21693H9.23162H9.24636H9.26117H9.27605H9.29098H9.30598H9.32104H9.33616H9.35135H9.36659H9.38189H9.39725H9.41267H9.42815H9.44369H9.45929H9.47495H9.49066H9.50643H9.52225H9.53814H9.55407H9.57007H9.58612H9.60222H9.61838H9.63459H9.65086H9.66718H9.68355H9.69998H9.71645H9.73298H9.74956H9.76619H9.78288H9.79961H9.81639H9.83322H9.8501H9.86703H9.88401H9.90104H9.91811H9.93523H9.9524H9.96961H9.98687H10.0042H10.0215H10.0389H10.0564H10.0739H10.0914H10.109H10.1266H10.1442H10.1619H10.1797H10.1975H10.2153H10.2332H10.2511H10.269H10.287H10.305H10.3231H10.3412H10.3593H10.3775H10.3957H10.414H10.4323H10.4506H10.469H10.4874H10.5058H10.5243H10.5428H10.5613H10.5799H10.5985H10.6171H10.6358H10.6545H10.6732H10.692H10.7108H10.7296H10.7485H10.7673H10.7863H10.8052H10.8242H10.8432H10.8622H10.8813H10.9004H10.9195H10.9386H10.9578H10.977H10.9962H11.0154H11.0347H11.054H11.0733H11.0926H11.112H11.1314H11.1508H11.1702H11.1896H11.2091H11.2286H11.2481H11.2676H11.2872H11.3068H11.3263H11.346H11.3656H11.3852H11.4049H11.4246H11.4443H11.464H11.4837H11.5034H11.5232H11.543H11.5628H11.5826H11.6024H11.6222H11.642H11.6619H11.6818H11.7016H11.7215H11.7414H11.7613H11.7812H11.8012H11.8211H11.8411H11.861H11.881H11.901H11.9209H11.9409H11.9609H11.9809H12.0009H12.0209H12.041H12.061H12.081H12.101H12.1211H12.1411H12.1612H12.1812H12.2013H12.2213H12.2414H12.2614H12.2815H12.3015H12.3216H12.3416H12.3617H12.3817H12.4018H12.4218H12.4419H12.4619H12.482H12.502H12.522H12.5421H12.5621H12.5821H12.6021H12.6221H12.6421H12.6621H12.6821H12.7021H12.7221H12.742H12.762H12.782H12.8019H12.8218H12.8418H12.8617H12.8816H12.9015H12.9213H12.9412H12.9611H12.9809H13.0007H13.0206H13.0404H13.0602H13.0799H13.0997H13.1194H13.1392H13.1589H13.1786H13.1983H13.2179H13.2376H13.2572H13.2768H13.2964H13.316H13.3355H13.3551H13.3746H13.3941H13.4136H13.433H13.4524H13.4719H13.4912H13.5106H13.53H13.5493H13.5686H13.5878H13.6071H13.6263H13.6455H13.6647H13.6838H13.7029H13.722H13.7411H13.7601H13.7791H13.7981H13.8171H13.836H13.8549H13.8738H13.8926H13.9114H13.9302H13.9489H13.9676H13.9863H14.0049H14.0236H14.0421H14.0607H14.0792H14.0977H14.1161H14.1345H14.1529H14.1712H14.1895H14.2078H14.226H14.2442H14.2624H14.2805H14.2986H14.3166H14.3346H14.3525H14.3705H14.3883H14.4062H14.424H14.4417H14.4594H14.4771H14.4947H14.5123H14.5299H14.5474H14.5648H14.5822H14.5996H14.6169H14.6342H14.6514H14.6686H14.6857H14.7028H14.7198H14.7368H14.7538H14.7707H14.7875H14.8043H14.8211H14.8377H14.8544H14.871H14.8875H14.904H14.9205H14.9368H14.9532H14.9695H14.9857H15.0019H15.018H15.034H15.0501H15.066H15.0819H15.0977H15.1135H15.1293H15.1449H15.1605H15.1761H15.1916H15.207H15.2224H15.2377H15.253H15.2682H15.2833H15.2984H15.3134H15.3284H15.3433H15.3581H15.3728H15.3875H15.4022H15.4168H15.4313H15.4457H15.4601H15.4744H15.4886H15.5028H15.5169H15.531H15.545H15.5589H15.5727H15.5865H15.6002H15.6138H15.6274H15.6409H15.6543H15.6677H15.681H15.6942H15.7073H15.7204H15.7334H15.7463H15.7591H15.7719H15.7846H15.7972H15.8098H15.8223H15.8347H15.847H15.8592H15.8714H15.8835H15.8955H15.9074H15.9193H15.9311H15.9428H15.9544H15.9659H15.9774H15.9888H16C16.5523 10 17 9.55228 17 9C17 8.44772 16.5523 8 16 8H15.9888H15.9774H15.9659H15.9544H15.9428H15.9311H15.9193H15.9074H15.8955H15.8835H15.8714H15.8592H15.847H15.8347H15.8223H15.8098H15.7972H15.7846H15.7719H15.7591H15.7463H15.7334H15.7204H15.7073H15.6942H15.681H15.6677H15.6543H15.6409H15.6274H15.6138H15.6002H15.5865H15.5727H15.5589H15.545H15.531H15.5169H15.5028H15.4886H15.4744H15.4601H15.4457H15.4313H15.4168H15.4022H15.3875H15.3728H15.3581H15.3433H15.3284H15.3134H15.2984H15.2833H15.2682H15.253H15.2377H15.2224H15.207H15.1916H15.1761H15.1605H15.1449H15.1293H15.1135H15.0977H15.0819H15.066H15.0501H15.034H15.018H15.0019H14.9857H14.9695H14.9532H14.9368H14.9205H14.904H14.8875H14.871H14.8544H14.8377H14.8211H14.8043H14.7875H14.7707H14.7538H14.7368H14.7198H14.7028H14.6857H14.6686H14.6514H14.6342H14.6169H14.5996H14.5822H14.5648H14.5474H14.5299H14.5123H14.4947H14.4771H14.4594H14.4417H14.424H14.4062H14.3883H14.3705H14.3525H14.3346H14.3166H14.2986H14.2805H14.2624H14.2442H14.226H14.2078H14.1895H14.1712H14.1529H14.1345H14.1161H14.0977H14.0792H14.0607H14.0421H14.0236H14.0049H13.9863H13.9676H13.9489H13.9302H13.9114H13.8926H13.8738H13.8549H13.836H13.8171H13.7981H13.7791H13.7601H13.7411H13.722H13.7029H13.6838H13.6647H13.6455H13.6263H13.6071H13.5878H13.5686H13.5493H13.53H13.5106H13.4912H13.4719H13.4524H13.433H13.4136H13.3941H13.3746H13.3551H13.3355H13.316H13.2964H13.2768H13.2572H13.2376H13.2179H13.1983H13.1786H13.1589H13.1392H13.1194H13.0997H13.0799H13.0602H13.0404H13.0206H13.0007H12.9809H12.9611H12.9412H12.9213H12.9015H12.8816H12.8617H12.8418H12.8218H12.8019H12.782H12.762H12.742H12.7221H12.7021H12.6821H12.6621H12.6421H12.6221H12.6021H12.5821H12.5621H12.5421H12.522H12.502H12.482H12.4619H12.4419H12.4218H12.4018H12.3817H12.3617H12.3416H12.3216H12.3015H12.2815H12.2614H12.2414H12.2213H12.2013H12.1812H12.1612H12.1411H12.1211H12.101H12.081H12.061H12.041H12.0209H12.0009H11.9809H11.9609H11.9409H11.9209H11.901H11.881H11.861H11.8411H11.8211H11.8012H11.7812H11.7613H11.7414H11.7215H11.7016H11.6818H11.6619H11.642H11.6222H11.6024H11.5826H11.5628H11.543H11.5232H11.5034H11.4837H11.464H11.4443H11.4246H11.4049H11.3852H11.3656H11.346H11.3263H11.3068H11.2872H11.2676H11.2481H11.2286H11.2091H11.1896H11.1702H11.1508H11.1314H11.112H11.0926H11.0733H11.054H11.0347H11.0154H10.9962H10.977H10.9578H10.9386H10.9195H10.9004H10.8813H10.8622H10.8432H10.8242H10.8052H10.7863H10.7673H10.7485H10.7296H10.7108H10.692H10.6732H10.6545H10.6358H10.6171H10.5985H10.5799H10.5613H10.5428H10.5243H10.5058H10.4874H10.469H10.4506H10.4323H10.414H10.3957H10.3775H10.3593H10.3412H10.3231H10.305H10.287H10.269H10.2511H10.2332H10.2153H10.1975H10.1797H10.1619H10.1442H10.1266H10.109H10.0914H10.0739H10.0564H10.0389H10.0215H10.0042H9.98687H9.96961H9.9524H9.93523H9.91811H9.90104H9.88401H9.86703H9.8501H9.83322H9.81639H9.79961H9.78288H9.76619H9.74956H9.73298H9.71645H9.69998H9.68355H9.66718H9.65086H9.63459H9.61838H9.60222H9.58612H9.57007H9.55407H9.53814H9.52225H9.50643H9.49066H9.47495H9.45929H9.44369H9.42815H9.41267H9.39725H9.38189H9.36659H9.35135H9.33616H9.32104H9.30598H9.29098H9.27605H9.26117H9.24636H9.23162H9.21693H9.20231H9.18775H9.17326H9.15883H9.14447H9.13018H9.11595H9.10179H9.08769H9.07366H9.0597H9.04581H9.03198H9.01823H9.00454H8.99092H8.97737H8.9639H8.95049H8.93716H8.92389H8.9107H8.89758H8.88453H8.87156H8.85866H8.84583H8.83308H8.8204H8.80779H8.79526H8.78281H8.77043H8.75813H8.74591H8.73376H8.72169H8.7097H8.69778H8.68595H8.67419H8.66252H8.65092H8.6394H8.62797H8.61661H8.60534H8.59414H8.58303H8.572H8.56106H8.5502H8.53942H8.52872H8.51811H8.50758H8.49714H8.48679H8.47652H8.46633H8.45624H8.44623H8.4363H8.42647H8.41672H8.40706H8.39749H8.38801H8.37862H8.36932H8.3601H8.35098H8.34195H8.33302H8.32417H8.31542H8.30675H8.29819H8.28971H8.28133H8.27304H8.26485H8.25675H8.24875H8.24084H8.23303H8.22531H8.21769H8.21017H8.20275H8.19542H8.1882H8.18107H8.17404H8.16711H8.16027H8.15354H8.14691H8.14038H8.13396H8.12763H8.1214H8.11528H8.10926H8.10335H8.09753H8.09182H8.08622H8.08072H8.07533H8.07004H8.06485H8.05977H8.0548H8.04994H8.04518H8.04053H8.03599H8.03156H8.02724H8.02302H8.01892H8.01492H8.01104H8.00726H8.0036H8.00005Z" fill="currentColor"/>
</svg>
