<svg width="5" height="9" viewBox="0 0 5 9" fill="none" xmlns="http://www.w3.org/2000/svg">
    <path d="M1.248 8.64C1.152 8.64 1.072 8.61333 1.008 8.56C0.944 8.496 0.912 8.416 0.912 8.32V7.68C0.912 7.54133 0.933333 7.43467 0.976 7.36C1.01867 7.27467 1.09333 7.17867 1.2 7.072L3.616 4.736L1.2 2.4C1.09333 2.29333 1.01867 2.20267 0.976 2.128C0.933333 2.04267 0.912 1.93067 0.912 1.792V1.152C0.912 1.056 0.944 0.981333 1.008 0.927999C1.072 0.864 1.152 0.832 1.248 0.832C1.30133 0.832 1.35467 0.848 1.408 0.879999C1.472 0.901333 1.536 0.938666 1.6 0.992L4.688 4C4.784 4.096 4.848 4.18667 4.88 4.272C4.92267 4.35733 4.94933 4.44267 4.96 4.528V4.944C4.94933 5.02933 4.92267 5.11467 4.88 5.2C4.848 5.28533 4.784 5.376 4.688 5.472L1.6 8.48C1.536 8.53333 1.472 8.576 1.408 8.608C1.35467 8.62933 1.30133 8.64 1.248 8.64Z" fill="currentColor"/>
</svg>
