<?xml version="1.0" encoding="UTF-8"?>
<svg viewBox="4.5 4.5 15 15" version="1.1" xmlns="http://www.w3.org/2000/svg" xmlns:xlink="http://www.w3.org/1999/xlink">
  <g id="Artboard" stroke="none" stroke-width="1.3" fill="none" fill-rule="evenodd">
    <g id="vpn_key_FILL1_wght400_GRAD0_opsz48-(1)" transform="translate(6.000000, 6.000000)">
      <path d="M4.40909091,3 C4.86515152,3 5.25359848,3.13611111 5.57443182,3.40833333 C5.89526515,3.68055556 6.11666667,4.00833333 6.23863636,4.39166667 L9.02272727,4.39166667 C9.15530303,4.39166667 9.26799242,4.44027778 9.36079545,4.5375 C9.45359848,4.63472222 9.5,4.75277778 9.5,4.89166667 L9.5,5.10833333 C9.5,5.24722222 9.45359848,5.36527778 9.36079545,5.4625 C9.26799242,5.55972222 9.15530303,5.60833333 9.02272727,5.60833333 L8.65681818,5.60833333 L8.65681818,6.5 C8.65681818,6.63888889 8.61041667,6.75694444 8.51761364,6.85416667 C8.42481061,6.95138889 8.31212121,7 8.17954545,7 L8.13181818,7 C7.99924242,7 7.88655303,6.95138889 7.79375,6.85416667 C7.70094697,6.75694444 7.65454545,6.63888889 7.65454545,6.5 L7.65454545,5.60833333 L6.23863636,5.60833333 C6.11666667,5.99166667 5.89526515,6.31944444 5.57443182,6.59166667 C5.25359848,6.86388889 4.86515152,7 4.40909091,7 C3.87878788,7 3.4280303,6.80555556 3.05681818,6.41666667 C2.68560606,6.02777778 2.5,5.55555556 2.5,5 C2.5,4.44444444 2.68560606,3.97222222 3.05681818,3.58333333 C3.4280303,3.19444444 3.87878788,3 4.40909091,3 Z M4.41,4.19 C4.18539215,4.19 3.99757353,4.26742647 3.84654411,4.42227941 C3.6955147,4.57713236 3.62,4.76970589 3.62,5 C3.62,5.23029411 3.6955147,5.42286764 3.84654411,5.57772059 C3.99757353,5.73257353 4.18539215,5.81 4.41,5.81 C4.63460785,5.81 4.82242647,5.73257353 4.97345588,5.57772059 C5.12448529,5.42286764 5.2,5.23029411 5.2,5 C5.2,4.76970589 5.12448529,4.57713236 4.97345588,4.42227941 C4.82242647,4.26742647 4.63460785,4.19 4.41,4.19 Z" id="Shape" fill="currentColor" fill-rule="nonzero"/>
      <path d="M2.14286,0 L9.96426,0 C11.14776,0 12.10716,0.95939 12.10716,2.14286 L12.10716,7.82139 C12.10716,9.00489 11.14776,9.96429 9.96426,9.96429 L6.66965,9.96429 L3.70099,12.56189 C3.47833,12.75669 3.13988,12.73409 2.94505,12.51149 C2.8596,12.41379 2.8125,12.28849 2.8125,12.15869 L2.8125,9.96429 L2.14286,9.96429 C0.95939,9.96429 0,9.00489 0,7.82139 L0,2.14286 C0,0.95939 0.95939,0 2.14286,0 Z" id="Path" stroke="currentColor" stroke-width="1.4" stroke-linejoin="round"/>
    </g>
  </g>
</svg>
