<svg xmlns="http://www.w3.org/2000/svg" viewBox="0 0 26 26">
    <path d="m15.491 7.536-.674 2.697c-.105.419-.157.628-.1.776a.5.5 0 0 0 .278.283c.146.06.357.011.778-.086l2.924-.674c1.673-.387 2.51-.58 3.198-.999a5 5 0 0 0 1.534-1.456c.454-.667.69-1.492 1.161-3.143l.982-3.437c.139-.484.208-.726.144-.884a.5.5 0 0 0-.31-.29c-.162-.053-.398.031-.872.2l-3.973 1.42c-1.474.526-2.21.79-2.807 1.231a5 5 0 0 0-1.312 1.447c-.381.637-.571 1.396-.951 2.915ZM12.787 0C5.725 0 0 5.83 0 12.893V13l2.405-.11A11 11 0 0 0 12.89 2.405l.103-2.253A.213.213 0 0 0 12.787 0Zm12.877 13.015-2.07.095A11 11 0 0 0 13.11 23.595L13 26h.114C20.169 26 26 20.28 26 13.225a.215.215 0 0 0-.225-.214l-.111.004zM13 26l-.11-2.405A11 11 0 0 0 2.405 13.11L0 13c.059 7.093 5.907 12.938 13 13Z"/>
</svg>