<?xml version="1.0" encoding="UTF-8"?>
<svg width="14px" height="13px" viewBox="0 0 14 13" version="1.1" xmlns="http://www.w3.org/2000/svg" xmlns:xlink="http://www.w3.org/1999/xlink">
  <g id="tonscan.org" stroke="none" stroke-width="1" fill="none" fill-rule="evenodd">
    <g id="Artboard" fill="currentColor" fill-rule="nonzero">
      <g id="svgviewer-output-(3)" transform="translate(7.000000, 6.500000) rotate(-90.000000) translate(-7.000000, -6.500000) translate(0.500000, -0.500000)">
        <path d="M0,1.75 C0,0.784 0.784,0 1.75,0 L4.25,0 C4.66421356,0 5,0.335786442 5,0.75 C5,1.16421356 4.66421356,1.5 4.25,1.5 L1.75,1.5 C1.61192881,1.5 1.5,1.61192881 1.5,1.75 L1.5,12.25 C1.5,12.388 1.612,12.5 1.75,12.5 L4.25,12.5 C4.66421356,12.5 5,12.8357864 5,13.25 C5,13.6642136 4.66421356,14 4.25,14 L1.75,14 C0.783501688,14 0,13.2164983 0,12.25 L0,1.75 Z M6.56,6.25 L12.25,6.25 C12.6642136,6.25 13,6.58578644 13,7 C13,7.41421356 12.6642136,7.75 12.25,7.75 L6.56,7.75 L8.53,9.72 C8.73110928,9.90674229 8.81398422,10.1885183 8.74600059,10.4544052 C8.67801695,10.7202922 8.47006258,10.9277071 8.204,10.995 C7.93842379,11.0630697 7.65687849,10.9806007 7.47,10.78 L4.22,7.53 C3.92754662,7.23718245 3.92754662,6.76281755 4.22,6.47 L7.47,3.22 C7.65674229,3.01889072 7.93851834,2.93601578 8.20440525,3.00399941 C8.47029216,3.07198305 8.67770714,3.27993742 8.745,3.546 C8.81306968,3.81157621 8.73060069,4.09312151 8.53,4.28 L6.56,6.25 Z" id="Shape"/>
      </g>
    </g>
  </g>
</svg>
