<?xml version="1.0" encoding="UTF-8"?>
<svg width="14px" height="13px" viewBox="0 0 14 13" version="1.1" xmlns="http://www.w3.org/2000/svg" xmlns:xlink="http://www.w3.org/1999/xlink">
  <g id="tonscan.org" stroke="none" stroke-width="1" fill="none" fill-rule="evenodd">
    <g id="Artboard" fill="currentColor" fill-rule="nonzero">
      <g id="svgviewer-output-(3)" transform="translate(7.000000, 6.500000) rotate(-90.000000) translate(-7.000000, -6.500000) translate(0.500000, -0.500000)">
        <path d="M0,1.75 C0,0.784 0.784,0 1.75,0 L4.25,0 C4.66421356,0 5,0.335786442 5,0.75 C5,1.16421356 4.66421356,1.5 4.25,1.5 L1.75,1.5 C1.61192881,1.5 1.5,1.61192881 1.5,1.75 L1.5,12.25 C1.5,12.388 1.612,12.5 1.75,12.5 L4.25,12.5 C4.66421356,12.5 5,12.8357864 5,13.25 C5,13.6642136 4.66421356,14 4.25,14 L1.75,14 C0.783501688,14 0,13.2164983 0,12.25 L0,1.75 Z M10.44066,6.25 L4.75065997,6.25 C4.3364464,6.25 4.00065997,6.58578644 4.00065997,7 C4.00065997,7.41421356 4.3364464,7.75 4.75065997,7.75 L10.44066,7.75 L8.47065997,9.72 C8.26955069,9.90674229 8.18667575,10.1885183 8.25465938,10.4544052 C8.32264301,10.7202922 8.53059739,10.9277071 8.79665997,10.995 C9.06223618,11.0630697 9.34378148,10.9806007 9.53065997,10.78 L12.78066,7.53 C13.0731133,7.23718245 13.0731133,6.76281755 12.78066,6.47 L9.53065997,3.22 C9.34391768,3.01889072 9.06214163,2.93601578 8.79625472,3.00399941 C8.53036781,3.07198305 8.32295282,3.27993742 8.25565997,3.546 C8.18759028,3.81157621 8.27005927,4.09312151 8.47065997,4.28 L10.44066,6.25 Z" id="Shape"/>
      </g>
    </g>
  </g>
</svg>
