<svg xmlns="http://www.w3.org/2000/svg" width="72" height="59" fill="none" viewBox="0 0 72 59">
   <defs>
      <clipPath id="diagonal-bottom-left-to-upper-right" clipPathUnits="userSpaceOnUse">
         <path fill="#000" d="M0 59 72 0v59z"/>
      </clipPath>
   </defs>
   <g>
      <path fill="#fff" d="M0 0h72v59H0z" paint-order="markers stroke fill"/>
      <path fill="#dbdbdb" d="M44 3a1.5 1.5 0 1 0 0 3h22a1.5 1.5 0 0 0 0-3ZM6 7a2.5 2.5 0 1 0 0-5 2.5 2.5 0 0 0 0 5Z"/>
      <g fill="#0069ff" paint-order="markers stroke fill">
         <rect width="18" height="10" x="6" y="34" rx="1" ry="1"/>
         <rect width="18" height="6" x="6" y="47" rx="1" ry="1"/>
         <rect width="18" height="6" x="48" y="47" rx="1" ry="1"/>
      </g>
      <g fill="#e6e6e6" paint-order="markers stroke fill">
         <rect width="60" height="15" x="6" y="14" rx="1" ry="1"/>
         <rect width="18" height="10" x="48" y="34" rx="1" ry="1"/>
         <rect width="18" height="10" x="27" y="34" rx="1" ry="1"/>
         <rect width="18" height="6" x="27" y="47" rx="1" ry="1"/>
      </g>
   </g>
   <g clip-path="url(#diagonal-bottom-left-to-upper-right)">
      <path fill="#2b2b2b" d="M0 0h72v59H0z" paint-order="markers stroke fill"/>
      <path fill="#505050" d="M44 3a1.5 1.5 0 1 0 0 3h22a1.5 1.5 0 0 0 0-3ZM6 7a2.5 2.5 0 1 0 0-5 2.5 2.5 0 0 0 0 5Z"/>
      <g fill="#4d96ff" paint-order="markers stroke fill">
         <rect width="18" height="10" x="6" y="34" rx="1" ry="1"/>
         <rect width="18" height="6" x="6" y="47" rx="1" ry="1"/>
         <rect width="18" height="6" x="48" y="47" rx="1" ry="1"/>
      </g>
      <g fill="#464646" paint-order="markers stroke fill">
         <rect width="60" height="15" x="6" y="14" rx="1" ry="1"/>
         <rect width="18" height="10" x="48" y="34" rx="1" ry="1"/>
         <rect width="18" height="10" x="27" y="34" rx="1" ry="1"/>
         <rect width="18" height="6" x="27" y="47" rx="1" ry="1"/>
      </g>
   </g>
</svg>
