<svg width="13px" height="11.8181818px" viewBox="0 0 13 11.8181818" version="1.1" xmlns="http://www.w3.org/2000/svg" xmlns:xlink="http://www.w3.org/1999/xlink">
  <title>wallet</title>
  <g id="tonscan.org" stroke="none" stroke-width="1" fill="none" fill-rule="evenodd">
    <g id="Artboard" transform="translate(-62.000000, -154.000000)" fill="currentColor" fill-rule="nonzero">
      <g id="Group-13" transform="translate(38.000000, 100.249307)">
        <g id="Group-12" transform="translate(23.000000, 52.750693)">
          <g id="wallet" transform="translate(1.000000, 1.000000)">
            <path d="M9.34375,7.09090909 C9.660625,7.09090909 9.945,6.97272727 10.18875,6.72848485 C10.440625,6.49212121 10.5625,6.20848485 10.5625,5.89333333 C10.5625,5.58606061 10.440625,5.31030303 10.18875,5.08181818 C9.945,4.84545455 9.660625,4.72727273 9.34375,4.72727273 C9.026875,4.72727273 8.7425,4.84545455 8.49875,5.08181818 C8.246875,5.31030303 8.125,5.58606061 8.125,5.89333333 C8.125,6.20848485 8.246875,6.49212121 8.49875,6.72848485 C8.7425,6.97272727 9.026875,7.09090909 9.34375,7.09090909 Z M7.353125,9.06060606 C6.97125,9.06060606 6.6625,8.87151515 6.435,8.65090909 C6.2075,8.43030303 6.09375,8.13878788 6.09375,7.78424242 L6.09375,4.05757576 C6.09375,3.67939394 6.2075,3.38787879 6.435,3.17515152 C6.6625,2.96242424 6.97125,2.75757576 7.353125,2.75757576 L11.7325,2.75757576 C12.1225,2.75757576 12.43125,2.96242424 12.65875,3.17515152 C12.88625,3.38787879 13,3.67939394 13,4.05757576 L13,7.78424242 C13,8.13878788 12.88625,8.43030303 12.65875,8.65090909 C12.43125,8.87151515 12.1225,9.06060606 11.7325,9.06060606 L7.353125,9.06060606 Z M0,9.84848485 L0,1.96969697 C0,0.882424242 0.91,0 2.03125,0 L11.2775,0 C11.545625,0 11.789375,0.102424242 11.9925,0.307272727 C12.195625,0.504242424 12.30125,0.732727273 12.30125,0.984848485 L12.30125,1.57575758 L7.141875,1.57575758 C6.48375,1.57575758 5.93125,2.08 5.500625,2.49757576 C5.07,2.90727273 4.875,3.42727273 4.875,4.05757576 L4.875,7.78424242 C4.875,8.40666667 5.07,8.92666667 5.500625,9.33636364 C5.93125,9.75393939 6.48375,10.2424242 7.141875,10.2424242 L12.30125,10.2424242 L12.30125,10.8333333 C12.30125,11.0933333 12.195625,11.329697 11.9925,11.5266667 C11.789375,11.7236364 11.545625,11.8181818 11.2775,11.8181818 L2.03125,11.8181818 C0.91,11.8181818 0,10.9357576 0,9.84848485 L0,9.84848485 Z" id="Shape"/>
          </g>
        </g>
      </g>
    </g>
  </g>
</svg>
