<svg xmlns="http://www.w3.org/2000/svg" viewBox="0 0 32 32">
   <style>
      path { color: rgba(0, 0, 0, 0.85); }
      .head { fill: rgba(255, 255, 255, 0.85); }
      @media (prefers-color-scheme:dark) {
         path { color:#fff; }
         .head { fill: none; }
      }
   </style>
   <path class="head" d="M28.446 2.742c.52.363.788 1.989.519 5.556a35.976 35.96 0 0 1-.52 3.862c1.208 2.105 1.542 4.49 1 7.16-.48 2.362-2.054 4.57-4.576 6.676-2.524 2.11-5.45 4.004-8.897 4.004s-6.979-1.988-9.125-4.003c-2.145-2.016-3.496-3.914-4.12-6.03-.756-2.564-.503-5.165.758-7.805a30.642 30.644 0 0 1-.505-3.864c-.251-4.274-.09-5.103.506-5.554.812-.616 3.392.967 7.74 4.746 1.994-.36 3.585-.54 4.774-.54 1.192 0 2.764.18 4.72.538 4.378-3.7 6.955-5.283 7.727-4.744z" style="stroke:currentColor;stroke-width:2;stroke-miterlimit:4;"/>
   <path fill="currentColor" d="M16.013 23.857c-1.056.021-2.479-1.41-2.479-1.995 0-.587 1.668-.76 2.6-.76.933 0 2.48.1 2.48.76s-1.543 1.976-2.601 1.995zM9.21 18.31c1.527.595 3.072.269 3.45-.726.377-.998-.557-2.29-2.086-2.885-1.527-.594-2.828-.661-3.206.334-.377.996.315 2.681 1.842 3.277zm13.674-.171c-1.443.696-3.017.44-3.394-.557-.376-.996.556-2.287 2.083-2.883 1.53-.594 2.677-.661 3.055.334.377.996-.299 2.407-1.742 3.106z"/>
</svg>
