<svg xmlns="http://www.w3.org/2000/svg" viewBox="0 0 32 32">
   <rect ry="6" rx="6" y="0" x="0" height="32" width="32" fill="#4e6eff"/>
   <path stroke="#ffffff" stroke-width="2" fill="none" d="M27 4c.456.318.607 1.85.371 4.977-.09 1.137-.158 1.903-.371 3.023 1.06 1.846 1.268 4.302.792 6.643-.42 2.071-1.58 4.07-3.792 5.917-2.214 1.85-4.977 3.44-8 3.44-3.023 0-6.118-1.695-8-3.462-1.881-1.768-3.094-3.472-3.641-5.327C3.696 16.962 3.894 14.315 5 12c-.22-1.119-.344-1.885-.42-3.023C4.36 5.23 4.478 4.396 5 4c.712-.54 3.186 1.686 7 5 2-1 2.957-1 4-1 1.045 0 2 0 4 1 3.84-3.245 6.323-5.473 7-5z"/>
   <path fill="#ffffff" d="M16.012 22.622c-.926.018-2.174-1.237-2.174-1.75 0-.514 1.463-.666 2.28-.666.819 0 2.176.088 2.176.666 0 .58-1.354 1.733-2.282 1.75zm-5.966-4.865c1.339.522 2.694.236 3.025-.636.331-.875-.488-2.008-1.83-2.53-1.338-.521-2.48-.58-2.811.293-.33.873.276 2.35 1.616 2.873zm11.993-.15c-1.266.61-2.646.386-2.977-.488-.33-.873.488-2.006 1.827-2.528 1.342-.521 2.348-.58 2.68.293.33.873-.263 2.11-1.529 2.723z"/>
</svg>
